<mxfile host="app.diagrams.net" agent="Mozilla/5.0 (Windows NT 10.0; Win64; x64) AppleWebKit/537.36 (KHTML, like Gecko) Chrome/128.0.0.0 Safari/537.36 OPR/114.0.0.0 (Edition std-1)" version="26.0.7">
  <diagram name="PÃ¡gina-1" id="PaV6WWa_u9qF6rwEOK8I">
    <mxGraphModel dx="446" dy="782" grid="1" gridSize="10" guides="1" tooltips="1" connect="1" arrows="1" fold="1" page="1" pageScale="1" pageWidth="827" pageHeight="1169" math="0" shadow="0">
      <root>
        <mxCell id="0" />
        <mxCell id="1" parent="0" />
        <mxCell id="iRAKUGh4yZ9PAMQyv2t5-1" value="Fuente de&lt;br&gt;voltaje 5V" style="rounded=0;whiteSpace=wrap;html=1;" vertex="1" parent="1">
          <mxGeometry x="30" y="170" width="60" height="40" as="geometry" />
        </mxCell>
        <mxCell id="iRAKUGh4yZ9PAMQyv2t5-2" value="" style="endArrow=classic;html=1;rounded=0;exitX=1;exitY=0.5;exitDx=0;exitDy=0;" edge="1" parent="1" source="iRAKUGh4yZ9PAMQyv2t5-1">
          <mxGeometry width="50" height="50" relative="1" as="geometry">
            <mxPoint x="210" y="340" as="sourcePoint" />
            <mxPoint x="110" y="190" as="targetPoint" />
          </mxGeometry>
        </mxCell>
        <mxCell id="iRAKUGh4yZ9PAMQyv2t5-3" value="Dip switch&lt;div&gt;de 4 pines&lt;/div&gt;" style="rounded=0;whiteSpace=wrap;html=1;" vertex="1" parent="1">
          <mxGeometry x="130" y="140" width="80" height="40" as="geometry" />
        </mxCell>
        <mxCell id="iRAKUGh4yZ9PAMQyv2t5-4" value="Dip Switch&amp;nbsp;&lt;div&gt;de 4 pines&lt;/div&gt;" style="rounded=0;whiteSpace=wrap;html=1;" vertex="1" parent="1">
          <mxGeometry x="130" y="200" width="80" height="40" as="geometry" />
        </mxCell>
        <mxCell id="iRAKUGh4yZ9PAMQyv2t5-108" value="" style="endArrow=none;html=1;rounded=0;" edge="1" parent="1">
          <mxGeometry width="50" height="50" relative="1" as="geometry">
            <mxPoint x="110" y="220" as="sourcePoint" />
            <mxPoint x="110" y="160" as="targetPoint" />
          </mxGeometry>
        </mxCell>
        <mxCell id="iRAKUGh4yZ9PAMQyv2t5-109" value="" style="endArrow=classic;html=1;rounded=0;entryX=0;entryY=0.5;entryDx=0;entryDy=0;" edge="1" parent="1" target="iRAKUGh4yZ9PAMQyv2t5-3">
          <mxGeometry width="50" height="50" relative="1" as="geometry">
            <mxPoint x="110" y="160" as="sourcePoint" />
            <mxPoint x="290" y="280" as="targetPoint" />
          </mxGeometry>
        </mxCell>
        <mxCell id="iRAKUGh4yZ9PAMQyv2t5-111" value="" style="endArrow=classic;html=1;rounded=0;entryX=0;entryY=0.5;entryDx=0;entryDy=0;entryPerimeter=0;" edge="1" parent="1" target="iRAKUGh4yZ9PAMQyv2t5-4">
          <mxGeometry width="50" height="50" relative="1" as="geometry">
            <mxPoint x="110" y="220" as="sourcePoint" />
            <mxPoint x="290" y="280" as="targetPoint" />
          </mxGeometry>
        </mxCell>
        <mxCell id="iRAKUGh4yZ9PAMQyv2t5-112" value="Comparador 7485" style="rounded=0;whiteSpace=wrap;html=1;" vertex="1" parent="1">
          <mxGeometry x="278" y="160" width="82" height="60" as="geometry" />
        </mxCell>
        <mxCell id="iRAKUGh4yZ9PAMQyv2t5-113" value="" style="endArrow=classic;html=1;rounded=0;exitX=1;exitY=0.5;exitDx=0;exitDy=0;entryX=0.01;entryY=0.343;entryDx=0;entryDy=0;entryPerimeter=0;" edge="1" parent="1" source="iRAKUGh4yZ9PAMQyv2t5-3" target="iRAKUGh4yZ9PAMQyv2t5-112">
          <mxGeometry width="50" height="50" relative="1" as="geometry">
            <mxPoint x="290" y="310" as="sourcePoint" />
            <mxPoint x="240" y="190" as="targetPoint" />
            <Array as="points">
              <mxPoint x="240" y="160" />
              <mxPoint x="240" y="180" />
              <mxPoint x="260" y="180" />
            </Array>
          </mxGeometry>
        </mxCell>
        <mxCell id="iRAKUGh4yZ9PAMQyv2t5-114" value="" style="endArrow=classic;html=1;rounded=0;exitX=1;exitY=0.5;exitDx=0;exitDy=0;entryX=0.024;entryY=0.667;entryDx=0;entryDy=0;entryPerimeter=0;" edge="1" parent="1" source="iRAKUGh4yZ9PAMQyv2t5-4" target="iRAKUGh4yZ9PAMQyv2t5-112">
          <mxGeometry width="50" height="50" relative="1" as="geometry">
            <mxPoint x="220" y="260" as="sourcePoint" />
            <mxPoint x="270" y="200" as="targetPoint" />
            <Array as="points">
              <mxPoint x="240" y="220" />
              <mxPoint x="240" y="200" />
            </Array>
          </mxGeometry>
        </mxCell>
        <mxCell id="iRAKUGh4yZ9PAMQyv2t5-116" value="" style="endArrow=none;html=1;rounded=0;" edge="1" parent="1">
          <mxGeometry width="50" height="50" relative="1" as="geometry">
            <mxPoint x="215" y="232.5" as="sourcePoint" />
            <mxPoint x="235" y="207.5" as="targetPoint" />
          </mxGeometry>
        </mxCell>
        <mxCell id="iRAKUGh4yZ9PAMQyv2t5-117" value="" style="endArrow=none;html=1;rounded=0;" edge="1" parent="1">
          <mxGeometry width="50" height="50" relative="1" as="geometry">
            <mxPoint x="216" y="173.5" as="sourcePoint" />
            <mxPoint x="236" y="148.5" as="targetPoint" />
          </mxGeometry>
        </mxCell>
        <mxCell id="iRAKUGh4yZ9PAMQyv2t5-118" value="3" style="text;html=1;align=center;verticalAlign=middle;whiteSpace=wrap;rounded=0;" vertex="1" parent="1">
          <mxGeometry x="212" y="146" width="20" height="10" as="geometry" />
        </mxCell>
        <mxCell id="iRAKUGh4yZ9PAMQyv2t5-119" value="3" style="text;html=1;align=center;verticalAlign=middle;whiteSpace=wrap;rounded=0;" vertex="1" parent="1">
          <mxGeometry x="214" y="204" width="20" height="10" as="geometry" />
        </mxCell>
        <mxCell id="iRAKUGh4yZ9PAMQyv2t5-120" value="A" style="text;html=1;align=center;verticalAlign=middle;whiteSpace=wrap;rounded=0;" vertex="1" parent="1">
          <mxGeometry x="255" y="167" width="18" height="10" as="geometry" />
        </mxCell>
        <mxCell id="iRAKUGh4yZ9PAMQyv2t5-121" value="B" style="text;html=1;align=center;verticalAlign=middle;whiteSpace=wrap;rounded=0;" vertex="1" parent="1">
          <mxGeometry x="257" y="203" width="18" height="10" as="geometry" />
        </mxCell>
        <mxCell id="iRAKUGh4yZ9PAMQyv2t5-122" value="Sumador&lt;div&gt;74LS83&lt;/div&gt;" style="rounded=0;whiteSpace=wrap;html=1;" vertex="1" parent="1">
          <mxGeometry x="210" y="350" width="70" height="40" as="geometry" />
        </mxCell>
        <mxCell id="iRAKUGh4yZ9PAMQyv2t5-125" value="" style="endArrow=classic;html=1;rounded=0;exitX=0.582;exitY=1.022;exitDx=0;exitDy=0;exitPerimeter=0;entryX=1;entryY=0.5;entryDx=0;entryDy=0;" edge="1" parent="1" source="iRAKUGh4yZ9PAMQyv2t5-1" target="iRAKUGh4yZ9PAMQyv2t5-122">
          <mxGeometry width="50" height="50" relative="1" as="geometry">
            <mxPoint x="110" y="350" as="sourcePoint" />
            <mxPoint x="300" y="320" as="targetPoint" />
            <Array as="points">
              <mxPoint x="65" y="260" />
              <mxPoint x="300" y="260" />
              <mxPoint x="300" y="370" />
            </Array>
          </mxGeometry>
        </mxCell>
        <mxCell id="iRAKUGh4yZ9PAMQyv2t5-127" value="Vcc" style="text;html=1;align=center;verticalAlign=middle;resizable=0;points=[];autosize=1;strokeColor=none;fillColor=none;" vertex="1" parent="1">
          <mxGeometry x="278" y="373" width="40" height="30" as="geometry" />
        </mxCell>
        <mxCell id="iRAKUGh4yZ9PAMQyv2t5-128" value="MUX&lt;div&gt;2/1&lt;/div&gt;&lt;div&gt;74157&lt;/div&gt;" style="rounded=0;whiteSpace=wrap;html=1;fontSize=10;" vertex="1" parent="1">
          <mxGeometry x="460" y="97" width="60" height="43" as="geometry" />
        </mxCell>
        <mxCell id="iRAKUGh4yZ9PAMQyv2t5-129" value="MUX&lt;div&gt;2/1&lt;/div&gt;&lt;div&gt;74157&lt;/div&gt;" style="rounded=0;whiteSpace=wrap;html=1;fontSize=10;" vertex="1" parent="1">
          <mxGeometry x="460" y="213" width="60" height="43" as="geometry" />
        </mxCell>
        <mxCell id="iRAKUGh4yZ9PAMQyv2t5-130" value="MUX&lt;div&gt;2/1&lt;/div&gt;&lt;div&gt;74157&lt;/div&gt;" style="rounded=0;whiteSpace=wrap;html=1;fontSize=10;" vertex="1" parent="1">
          <mxGeometry x="460" y="330" width="60" height="43" as="geometry" />
        </mxCell>
        <mxCell id="iRAKUGh4yZ9PAMQyv2t5-131" value="" style="endArrow=classic;html=1;rounded=0;entryX=0.5;entryY=0;entryDx=0;entryDy=0;exitX=0.75;exitY=0;exitDx=0;exitDy=0;" edge="1" parent="1" source="iRAKUGh4yZ9PAMQyv2t5-112" target="iRAKUGh4yZ9PAMQyv2t5-128">
          <mxGeometry width="50" height="50" relative="1" as="geometry">
            <mxPoint x="300" y="160" as="sourcePoint" />
            <mxPoint x="490" y="70" as="targetPoint" />
            <Array as="points">
              <mxPoint x="340" y="110" />
              <mxPoint x="340" y="70" />
              <mxPoint x="490" y="70" />
            </Array>
          </mxGeometry>
        </mxCell>
        <mxCell id="iRAKUGh4yZ9PAMQyv2t5-132" value="" style="endArrow=classic;html=1;rounded=0;exitX=0.5;exitY=0;exitDx=0;exitDy=0;" edge="1" parent="1" source="iRAKUGh4yZ9PAMQyv2t5-112">
          <mxGeometry width="50" height="50" relative="1" as="geometry">
            <mxPoint x="300" y="150" as="sourcePoint" />
            <mxPoint x="490" y="210" as="targetPoint" />
            <Array as="points">
              <mxPoint x="319" y="60" />
              <mxPoint x="550" y="60" />
              <mxPoint x="550" y="190" />
              <mxPoint x="490" y="190" />
            </Array>
          </mxGeometry>
        </mxCell>
        <mxCell id="iRAKUGh4yZ9PAMQyv2t5-133" value="" style="endArrow=classic;html=1;rounded=0;entryX=0.5;entryY=0;entryDx=0;entryDy=0;exitX=0.25;exitY=0;exitDx=0;exitDy=0;" edge="1" parent="1" source="iRAKUGh4yZ9PAMQyv2t5-112" target="iRAKUGh4yZ9PAMQyv2t5-130">
          <mxGeometry width="50" height="50" relative="1" as="geometry">
            <mxPoint x="300" y="156" as="sourcePoint" />
            <mxPoint x="490" y="310" as="targetPoint" />
            <Array as="points">
              <mxPoint x="300" y="50" />
              <mxPoint x="570" y="50" />
              <mxPoint x="570" y="310" />
              <mxPoint x="490" y="310" />
            </Array>
          </mxGeometry>
        </mxCell>
        <mxCell id="iRAKUGh4yZ9PAMQyv2t5-134" value="A=B" style="text;html=1;align=center;verticalAlign=middle;whiteSpace=wrap;rounded=0;fontSize=8;" vertex="1" parent="1">
          <mxGeometry x="282" y="161" width="30" height="14" as="geometry" />
        </mxCell>
        <mxCell id="iRAKUGh4yZ9PAMQyv2t5-135" value="A&amp;gt;B" style="text;html=1;align=center;verticalAlign=middle;whiteSpace=wrap;rounded=0;fontSize=8;" vertex="1" parent="1">
          <mxGeometry x="326" y="161" width="30" height="14" as="geometry" />
        </mxCell>
        <mxCell id="iRAKUGh4yZ9PAMQyv2t5-136" value="A&amp;lt;B" style="text;html=1;align=center;verticalAlign=middle;whiteSpace=wrap;rounded=0;fontSize=8;" vertex="1" parent="1">
          <mxGeometry x="304" y="161" width="30" height="14" as="geometry" />
        </mxCell>
        <mxCell id="iRAKUGh4yZ9PAMQyv2t5-138" value="" style="endArrow=classic;html=1;rounded=0;entryX=0;entryY=0.75;entryDx=0;entryDy=0;" edge="1" parent="1" target="iRAKUGh4yZ9PAMQyv2t5-128">
          <mxGeometry width="50" height="50" relative="1" as="geometry">
            <mxPoint x="230" y="220" as="sourcePoint" />
            <mxPoint x="330" y="230" as="targetPoint" />
            <Array as="points">
              <mxPoint x="230" y="250" />
              <mxPoint x="400" y="250" />
              <mxPoint x="400" y="130" />
            </Array>
          </mxGeometry>
        </mxCell>
        <mxCell id="iRAKUGh4yZ9PAMQyv2t5-139" value="" style="endArrow=classic;html=1;rounded=0;entryX=0;entryY=0.25;entryDx=0;entryDy=0;" edge="1" parent="1" target="iRAKUGh4yZ9PAMQyv2t5-128">
          <mxGeometry width="50" height="50" relative="1" as="geometry">
            <mxPoint x="250" y="180" as="sourcePoint" />
            <mxPoint x="380" y="220" as="targetPoint" />
            <Array as="points">
              <mxPoint x="250" y="230" />
              <mxPoint x="380" y="230" />
              <mxPoint x="380" y="108" />
            </Array>
          </mxGeometry>
        </mxCell>
        <mxCell id="iRAKUGh4yZ9PAMQyv2t5-141" value="A" style="text;html=1;align=center;verticalAlign=middle;whiteSpace=wrap;rounded=0;" vertex="1" parent="1">
          <mxGeometry x="422" y="96" width="18" height="10" as="geometry" />
        </mxCell>
        <mxCell id="iRAKUGh4yZ9PAMQyv2t5-142" value="B" style="text;html=1;align=center;verticalAlign=middle;whiteSpace=wrap;rounded=0;" vertex="1" parent="1">
          <mxGeometry x="424" y="132" width="18" height="10" as="geometry" />
        </mxCell>
        <mxCell id="iRAKUGh4yZ9PAMQyv2t5-143" value="" style="endArrow=classic;html=1;rounded=0;entryX=0;entryY=0.395;entryDx=0;entryDy=0;entryPerimeter=0;" edge="1" parent="1" target="iRAKUGh4yZ9PAMQyv2t5-129">
          <mxGeometry width="50" height="50" relative="1" as="geometry">
            <mxPoint x="380" y="230" as="sourcePoint" />
            <mxPoint x="430" y="180" as="targetPoint" />
          </mxGeometry>
        </mxCell>
        <mxCell id="iRAKUGh4yZ9PAMQyv2t5-144" value="" style="endArrow=classic;html=1;rounded=0;entryX=-0.012;entryY=0.85;entryDx=0;entryDy=0;entryPerimeter=0;" edge="1" parent="1" target="iRAKUGh4yZ9PAMQyv2t5-129">
          <mxGeometry width="50" height="50" relative="1" as="geometry">
            <mxPoint x="400" y="250" as="sourcePoint" />
            <mxPoint x="450" y="200" as="targetPoint" />
          </mxGeometry>
        </mxCell>
        <mxCell id="iRAKUGh4yZ9PAMQyv2t5-145" value="A" style="text;html=1;align=center;verticalAlign=middle;whiteSpace=wrap;rounded=0;" vertex="1" parent="1">
          <mxGeometry x="434" y="216" width="18" height="10" as="geometry" />
        </mxCell>
        <mxCell id="iRAKUGh4yZ9PAMQyv2t5-146" value="B" style="text;html=1;align=center;verticalAlign=middle;whiteSpace=wrap;rounded=0;" vertex="1" parent="1">
          <mxGeometry x="436" y="252" width="18" height="10" as="geometry" />
        </mxCell>
        <mxCell id="iRAKUGh4yZ9PAMQyv2t5-151" value="" style="endArrow=classic;html=1;rounded=0;entryX=0.75;entryY=0;entryDx=0;entryDy=0;" edge="1" parent="1" target="iRAKUGh4yZ9PAMQyv2t5-122">
          <mxGeometry width="50" height="50" relative="1" as="geometry">
            <mxPoint x="520" y="120" as="sourcePoint" />
            <mxPoint x="260" y="300" as="targetPoint" />
            <Array as="points">
              <mxPoint x="580" y="120" />
              <mxPoint x="580" y="300" />
              <mxPoint x="263" y="300" />
            </Array>
          </mxGeometry>
        </mxCell>
        <mxCell id="iRAKUGh4yZ9PAMQyv2t5-152" value="XOR" style="rounded=0;whiteSpace=wrap;html=1;" vertex="1" parent="1">
          <mxGeometry x="197" y="300" width="50" height="30" as="geometry" />
        </mxCell>
        <mxCell id="iRAKUGh4yZ9PAMQyv2t5-153" value="" style="endArrow=classic;html=1;rounded=0;exitX=0.5;exitY=1;exitDx=0;exitDy=0;entryX=0.182;entryY=-0.054;entryDx=0;entryDy=0;entryPerimeter=0;" edge="1" parent="1" source="iRAKUGh4yZ9PAMQyv2t5-152" target="iRAKUGh4yZ9PAMQyv2t5-122">
          <mxGeometry width="50" height="50" relative="1" as="geometry">
            <mxPoint x="180" y="410" as="sourcePoint" />
            <mxPoint x="230" y="360" as="targetPoint" />
          </mxGeometry>
        </mxCell>
        <mxCell id="iRAKUGh4yZ9PAMQyv2t5-154" value="" style="endArrow=classic;html=1;rounded=0;exitX=1;exitY=0.5;exitDx=0;exitDy=0;entryX=0.5;entryY=0;entryDx=0;entryDy=0;" edge="1" parent="1" source="iRAKUGh4yZ9PAMQyv2t5-129" target="iRAKUGh4yZ9PAMQyv2t5-152">
          <mxGeometry width="50" height="50" relative="1" as="geometry">
            <mxPoint x="370" y="380" as="sourcePoint" />
            <mxPoint x="220" y="290" as="targetPoint" />
            <Array as="points">
              <mxPoint x="550" y="235" />
              <mxPoint x="550" y="290" />
              <mxPoint x="222" y="290" />
            </Array>
          </mxGeometry>
        </mxCell>
        <mxCell id="iRAKUGh4yZ9PAMQyv2t5-155" value="" style="endArrow=none;html=1;rounded=0;" edge="1" parent="1">
          <mxGeometry width="50" height="50" relative="1" as="geometry">
            <mxPoint x="530" y="249.5" as="sourcePoint" />
            <mxPoint x="550" y="219.5" as="targetPoint" />
          </mxGeometry>
        </mxCell>
        <mxCell id="iRAKUGh4yZ9PAMQyv2t5-156" value="" style="endArrow=none;html=1;rounded=0;" edge="1" parent="1">
          <mxGeometry width="50" height="50" relative="1" as="geometry">
            <mxPoint x="526" y="132" as="sourcePoint" />
            <mxPoint x="546" y="102" as="targetPoint" />
          </mxGeometry>
        </mxCell>
        <mxCell id="iRAKUGh4yZ9PAMQyv2t5-157" value="3" style="text;html=1;align=center;verticalAlign=middle;whiteSpace=wrap;rounded=0;" vertex="1" parent="1">
          <mxGeometry x="520" y="102" width="20" height="10" as="geometry" />
        </mxCell>
        <mxCell id="iRAKUGh4yZ9PAMQyv2t5-158" value="3" style="text;html=1;align=center;verticalAlign=middle;whiteSpace=wrap;rounded=0;" vertex="1" parent="1">
          <mxGeometry x="526" y="217" width="20" height="10" as="geometry" />
        </mxCell>
        <mxCell id="iRAKUGh4yZ9PAMQyv2t5-159" value="" style="endArrow=none;html=1;rounded=0;entryX=0.337;entryY=-0.082;entryDx=0;entryDy=0;entryPerimeter=0;" edge="1" parent="1">
          <mxGeometry width="50" height="50" relative="1" as="geometry">
            <mxPoint x="210" y="334" as="sourcePoint" />
            <mxPoint x="233.59000000000003" y="340.72" as="targetPoint" />
          </mxGeometry>
        </mxCell>
        <mxCell id="iRAKUGh4yZ9PAMQyv2t5-160" value="3" style="text;html=1;align=center;verticalAlign=middle;resizable=0;points=[];autosize=1;strokeColor=none;fillColor=none;fontSize=8;" vertex="1" parent="1">
          <mxGeometry x="195" y="329" width="30" height="20" as="geometry" />
        </mxCell>
        <mxCell id="iRAKUGh4yZ9PAMQyv2t5-161" value="DECODER BCD/7 Segmentos&lt;div&gt;74ls47&lt;/div&gt;" style="rounded=0;whiteSpace=wrap;html=1;" vertex="1" parent="1">
          <mxGeometry x="206" y="450" width="104" height="50" as="geometry" />
        </mxCell>
        <mxCell id="iRAKUGh4yZ9PAMQyv2t5-162" value="DECODER BCD/7 Segmentos&lt;div&gt;74ls47&lt;/div&gt;" style="rounded=0;whiteSpace=wrap;html=1;" vertex="1" parent="1">
          <mxGeometry x="356" y="450" width="104" height="50" as="geometry" />
        </mxCell>
        <mxCell id="iRAKUGh4yZ9PAMQyv2t5-163" value="DECODER BCD/7 Segmentos&lt;div&gt;74ls47&lt;/div&gt;" style="rounded=0;whiteSpace=wrap;html=1;" vertex="1" parent="1">
          <mxGeometry x="500" y="450" width="104" height="50" as="geometry" />
        </mxCell>
        <mxCell id="iRAKUGh4yZ9PAMQyv2t5-164" value="" style="endArrow=classic;html=1;rounded=0;exitX=0.5;exitY=1;exitDx=0;exitDy=0;entryX=0.429;entryY=-0.056;entryDx=0;entryDy=0;entryPerimeter=0;" edge="1" parent="1" source="iRAKUGh4yZ9PAMQyv2t5-122" target="iRAKUGh4yZ9PAMQyv2t5-161">
          <mxGeometry width="50" height="50" relative="1" as="geometry">
            <mxPoint x="310" y="550" as="sourcePoint" />
            <mxPoint x="360" y="500" as="targetPoint" />
          </mxGeometry>
        </mxCell>
        <mxCell id="iRAKUGh4yZ9PAMQyv2t5-165" value="" style="endArrow=none;html=1;rounded=0;" edge="1" parent="1">
          <mxGeometry width="50" height="50" relative="1" as="geometry">
            <mxPoint x="237" y="423" as="sourcePoint" />
            <mxPoint x="257" y="403" as="targetPoint" />
          </mxGeometry>
        </mxCell>
        <mxCell id="iRAKUGh4yZ9PAMQyv2t5-166" value="3" style="text;html=1;align=center;verticalAlign=middle;resizable=0;points=[];autosize=1;strokeColor=none;fillColor=none;" vertex="1" parent="1">
          <mxGeometry x="245" y="403" width="30" height="30" as="geometry" />
        </mxCell>
        <mxCell id="iRAKUGh4yZ9PAMQyv2t5-167" value="" style="endArrow=classic;html=1;rounded=0;entryX=0;entryY=0.5;entryDx=0;entryDy=0;" edge="1" parent="1" target="iRAKUGh4yZ9PAMQyv2t5-162">
          <mxGeometry width="50" height="50" relative="1" as="geometry">
            <mxPoint x="330" y="300" as="sourcePoint" />
            <mxPoint x="470" y="440" as="targetPoint" />
            <Array as="points">
              <mxPoint x="330" y="475" />
            </Array>
          </mxGeometry>
        </mxCell>
        <mxCell id="iRAKUGh4yZ9PAMQyv2t5-168" value="" style="endArrow=none;html=1;rounded=0;" edge="1" parent="1">
          <mxGeometry width="50" height="50" relative="1" as="geometry">
            <mxPoint x="318" y="417" as="sourcePoint" />
            <mxPoint x="338" y="397" as="targetPoint" />
          </mxGeometry>
        </mxCell>
        <mxCell id="iRAKUGh4yZ9PAMQyv2t5-169" value="3" style="text;html=1;align=center;verticalAlign=middle;resizable=0;points=[];autosize=1;strokeColor=none;fillColor=none;" vertex="1" parent="1">
          <mxGeometry x="326" y="397" width="30" height="30" as="geometry" />
        </mxCell>
        <mxCell id="iRAKUGh4yZ9PAMQyv2t5-170" value="" style="endArrow=classic;html=1;rounded=0;entryX=0;entryY=0.25;entryDx=0;entryDy=0;" edge="1" parent="1" target="iRAKUGh4yZ9PAMQyv2t5-130">
          <mxGeometry width="50" height="50" relative="1" as="geometry">
            <mxPoint x="380" y="230" as="sourcePoint" />
            <mxPoint x="510" y="290" as="targetPoint" />
            <Array as="points">
              <mxPoint x="380" y="340" />
            </Array>
          </mxGeometry>
        </mxCell>
        <mxCell id="iRAKUGh4yZ9PAMQyv2t5-171" value="" style="endArrow=classic;html=1;rounded=0;entryX=0;entryY=0.75;entryDx=0;entryDy=0;" edge="1" parent="1" target="iRAKUGh4yZ9PAMQyv2t5-130">
          <mxGeometry width="50" height="50" relative="1" as="geometry">
            <mxPoint x="400" y="250" as="sourcePoint" />
            <mxPoint x="400" y="370" as="targetPoint" />
            <Array as="points">
              <mxPoint x="400" y="362" />
            </Array>
          </mxGeometry>
        </mxCell>
        <mxCell id="iRAKUGh4yZ9PAMQyv2t5-172" value="A" style="text;html=1;align=center;verticalAlign=middle;whiteSpace=wrap;rounded=0;" vertex="1" parent="1">
          <mxGeometry x="433" y="329" width="18" height="10" as="geometry" />
        </mxCell>
        <mxCell id="iRAKUGh4yZ9PAMQyv2t5-173" value="B" style="text;html=1;align=center;verticalAlign=middle;whiteSpace=wrap;rounded=0;" vertex="1" parent="1">
          <mxGeometry x="435" y="365" width="18" height="10" as="geometry" />
        </mxCell>
        <mxCell id="iRAKUGh4yZ9PAMQyv2t5-174" value="" style="endArrow=classic;html=1;rounded=0;exitX=1;exitY=0.5;exitDx=0;exitDy=0;entryX=0.5;entryY=0;entryDx=0;entryDy=0;" edge="1" parent="1" source="iRAKUGh4yZ9PAMQyv2t5-130" target="iRAKUGh4yZ9PAMQyv2t5-163">
          <mxGeometry width="50" height="50" relative="1" as="geometry">
            <mxPoint x="560" y="530" as="sourcePoint" />
            <mxPoint x="610" y="480" as="targetPoint" />
            <Array as="points">
              <mxPoint x="552" y="352" />
            </Array>
          </mxGeometry>
        </mxCell>
        <mxCell id="iRAKUGh4yZ9PAMQyv2t5-175" value="" style="endArrow=none;html=1;rounded=0;" edge="1" parent="1">
          <mxGeometry width="50" height="50" relative="1" as="geometry">
            <mxPoint x="540" y="417" as="sourcePoint" />
            <mxPoint x="560" y="397" as="targetPoint" />
          </mxGeometry>
        </mxCell>
        <mxCell id="iRAKUGh4yZ9PAMQyv2t5-176" value="3" style="text;html=1;align=center;verticalAlign=middle;resizable=0;points=[];autosize=1;strokeColor=none;fillColor=none;" vertex="1" parent="1">
          <mxGeometry x="548" y="397" width="30" height="30" as="geometry" />
        </mxCell>
        <mxCell id="iRAKUGh4yZ9PAMQyv2t5-177" value="DISPLAY 7 Segmentos CÃ¡todo ComÃºn&amp;nbsp;&lt;span style=&quot;color: rgba(0, 0, 0, 0); font-family: monospace; font-size: 0px; text-align: start; text-wrap: nowrap;&quot;&gt;%3CmxGraphModel%3E%3Croot%3E%3CmxCell%20id%3D%220%22%2F%3E%3CmxCell%20id%3D%221%22%20parent%3D%220%22%2F%3E%3CmxCell%20id%3D%222%22%20value%3D%22%22%20style%3D%22endArrow%3Dnone%3Bhtml%3D1%3Brounded%3D0%3B%22%20edge%3D%221%22%20parent%3D%221%22%3E%3CmxGeometry%20width%3D%2250%22%20height%3D%2250%22%20relative%3D%221%22%20as%3D%22geometry%22%3E%3CmxPoint%20x%3D%22360%22%20y%3D%22413%22%20as%3D%22sourcePoint%22%2F%3E%3CmxPoint%20x%3D%22380%22%20y%3D%22393%22%20as%3D%22targetPoint%22%2F%3E%3C%2FmxGeometry%3E%3C%2FmxCell%3E%3CmxCell%20id%3D%223%22%20value%3D%223%22%20style%3D%22text%3Bhtml%3D1%3Balign%3Dcenter%3BverticalAlign%3Dmiddle%3Bresizable%3D0%3Bpoints%3D%5B%5D%3Bautosize%3D1%3BstrokeColor%3Dnone%3BfillColor%3Dnone%3B%22%20vertex%3D%221%22%20parent%3D%221%22%3E%3CmxGeometry%20x%3D%22368%22%20y%3D%22393%22%20width%3D%2230%22%20height%3D%2230%22%20as%3D%22geometry%22%2F%3E%3C%2FmxCell%3E%3C%2Froot%3E%3C%2FmxGraphModel%3E&lt;/span&gt;" style="rounded=0;whiteSpace=wrap;html=1;" vertex="1" parent="1">
          <mxGeometry x="198" y="555" width="120" height="60" as="geometry" />
        </mxCell>
        <mxCell id="iRAKUGh4yZ9PAMQyv2t5-178" value="DISPLAY 7 Segmentos CÃ¡todo ComÃºn&amp;nbsp;&lt;span style=&quot;color: rgba(0, 0, 0, 0); font-family: monospace; font-size: 0px; text-align: start; text-wrap: nowrap;&quot;&gt;%3CmxGraphModel%3E%3Croot%3E%3CmxCell%20id%3D%220%22%2F%3E%3CmxCell%20id%3D%221%22%20parent%3D%220%22%2F%3E%3CmxCell%20id%3D%222%22%20value%3D%22%22%20style%3D%22endArrow%3Dnone%3Bhtml%3D1%3Brounded%3D0%3B%22%20edge%3D%221%22%20parent%3D%221%22%3E%3CmxGeometry%20width%3D%2250%22%20height%3D%2250%22%20relative%3D%221%22%20as%3D%22geometry%22%3E%3CmxPoint%20x%3D%22360%22%20y%3D%22413%22%20as%3D%22sourcePoint%22%2F%3E%3CmxPoint%20x%3D%22380%22%20y%3D%22393%22%20as%3D%22targetPoint%22%2F%3E%3C%2FmxGeometry%3E%3C%2FmxCell%3E%3CmxCell%20id%3D%223%22%20value%3D%223%22%20style%3D%22text%3Bhtml%3D1%3Balign%3Dcenter%3BverticalAlign%3Dmiddle%3Bresizable%3D0%3Bpoints%3D%5B%5D%3Bautosize%3D1%3BstrokeColor%3Dnone%3BfillColor%3Dnone%3B%22%20vertex%3D%221%22%20parent%3D%221%22%3E%3CmxGeometry%20x%3D%22368%22%20y%3D%22393%22%20width%3D%2230%22%20height%3D%2230%22%20as%3D%22geometry%22%2F%3E%3C%2FmxCell%3E%3C%2Froot%3E%3C%2FmxGraphModel%3E&lt;/span&gt;" style="rounded=0;whiteSpace=wrap;html=1;" vertex="1" parent="1">
          <mxGeometry x="348" y="555" width="120" height="60" as="geometry" />
        </mxCell>
        <mxCell id="iRAKUGh4yZ9PAMQyv2t5-179" value="DISPLAY 7 Segmentos CÃ¡todo ComÃºn&amp;nbsp;&lt;span style=&quot;color: rgba(0, 0, 0, 0); font-family: monospace; font-size: 0px; text-align: start; text-wrap: nowrap;&quot;&gt;%3CmxGraphModel%3E%3Croot%3E%3CmxCell%20id%3D%220%22%2F%3E%3CmxCell%20id%3D%221%22%20parent%3D%220%22%2F%3E%3CmxCell%20id%3D%222%22%20value%3D%22%22%20style%3D%22endArrow%3Dnone%3Bhtml%3D1%3Brounded%3D0%3B%22%20edge%3D%221%22%20parent%3D%221%22%3E%3CmxGeometry%20width%3D%2250%22%20height%3D%2250%22%20relative%3D%221%22%20as%3D%22geometry%22%3E%3CmxPoint%20x%3D%22360%22%20y%3D%22413%22%20as%3D%22sourcePoint%22%2F%3E%3CmxPoint%20x%3D%22380%22%20y%3D%22393%22%20as%3D%22targetPoint%22%2F%3E%3C%2FmxGeometry%3E%3C%2FmxCell%3E%3CmxCell%20id%3D%223%22%20value%3D%223%22%20style%3D%22text%3Bhtml%3D1%3Balign%3Dcenter%3BverticalAlign%3Dmiddle%3Bresizable%3D0%3Bpoints%3D%5B%5D%3Bautosize%3D1%3BstrokeColor%3Dnone%3BfillColor%3Dnone%3B%22%20vertex%3D%221%22%20parent%3D%221%22%3E%3CmxGeometry%20x%3D%22368%22%20y%3D%22393%22%20width%3D%2230%22%20height%3D%2230%22%20as%3D%22geometry%22%2F%3E%3C%2FmxCell%3E%3C%2Froot%3E%3C%2FmxGraphModel%3E&lt;/span&gt;" style="rounded=0;whiteSpace=wrap;html=1;" vertex="1" parent="1">
          <mxGeometry x="500" y="555" width="120" height="60" as="geometry" />
        </mxCell>
        <mxCell id="iRAKUGh4yZ9PAMQyv2t5-180" value="" style="endArrow=classic;html=1;rounded=0;exitX=0.449;exitY=1.048;exitDx=0;exitDy=0;exitPerimeter=0;entryX=0.461;entryY=0.031;entryDx=0;entryDy=0;entryPerimeter=0;" edge="1" parent="1" source="iRAKUGh4yZ9PAMQyv2t5-161" target="iRAKUGh4yZ9PAMQyv2t5-177">
          <mxGeometry width="50" height="50" relative="1" as="geometry">
            <mxPoint x="290" y="670" as="sourcePoint" />
            <mxPoint x="340" y="620" as="targetPoint" />
          </mxGeometry>
        </mxCell>
        <mxCell id="iRAKUGh4yZ9PAMQyv2t5-181" value="" style="endArrow=classic;html=1;rounded=0;exitX=0.5;exitY=1;exitDx=0;exitDy=0;entryX=0.5;entryY=0;entryDx=0;entryDy=0;" edge="1" parent="1" source="iRAKUGh4yZ9PAMQyv2t5-162" target="iRAKUGh4yZ9PAMQyv2t5-178">
          <mxGeometry width="50" height="50" relative="1" as="geometry">
            <mxPoint x="430" y="680" as="sourcePoint" />
            <mxPoint x="480" y="630" as="targetPoint" />
          </mxGeometry>
        </mxCell>
        <mxCell id="iRAKUGh4yZ9PAMQyv2t5-182" value="" style="endArrow=classic;html=1;rounded=0;exitX=0.5;exitY=1;exitDx=0;exitDy=0;entryX=0.451;entryY=-0.026;entryDx=0;entryDy=0;entryPerimeter=0;" edge="1" parent="1" source="iRAKUGh4yZ9PAMQyv2t5-163" target="iRAKUGh4yZ9PAMQyv2t5-179">
          <mxGeometry width="50" height="50" relative="1" as="geometry">
            <mxPoint x="570" y="670" as="sourcePoint" />
            <mxPoint x="620" y="620" as="targetPoint" />
          </mxGeometry>
        </mxCell>
        <mxCell id="iRAKUGh4yZ9PAMQyv2t5-183" value="DIFERENCIA" style="text;html=1;align=center;verticalAlign=middle;whiteSpace=wrap;rounded=0;" vertex="1" parent="1">
          <mxGeometry x="228" y="630" width="60" height="30" as="geometry" />
        </mxCell>
        <mxCell id="iRAKUGh4yZ9PAMQyv2t5-184" value="MENOR" style="text;html=1;align=center;verticalAlign=middle;whiteSpace=wrap;rounded=0;" vertex="1" parent="1">
          <mxGeometry x="383" y="630" width="60" height="30" as="geometry" />
        </mxCell>
        <mxCell id="iRAKUGh4yZ9PAMQyv2t5-185" value="IGUAL" style="text;html=1;align=center;verticalAlign=middle;whiteSpace=wrap;rounded=0;" vertex="1" parent="1">
          <mxGeometry x="530" y="630" width="60" height="30" as="geometry" />
        </mxCell>
        <mxCell id="iRAKUGh4yZ9PAMQyv2t5-186" value="" style="endArrow=none;html=1;rounded=0;" edge="1" parent="1">
          <mxGeometry width="50" height="50" relative="1" as="geometry">
            <mxPoint x="242" y="530" as="sourcePoint" />
            <mxPoint x="262" y="510" as="targetPoint" />
          </mxGeometry>
        </mxCell>
        <mxCell id="iRAKUGh4yZ9PAMQyv2t5-187" value="7" style="text;html=1;align=center;verticalAlign=middle;resizable=0;points=[];autosize=1;strokeColor=none;fillColor=none;" vertex="1" parent="1">
          <mxGeometry x="250" y="510" width="30" height="30" as="geometry" />
        </mxCell>
        <mxCell id="iRAKUGh4yZ9PAMQyv2t5-188" value="" style="endArrow=none;html=1;rounded=0;" edge="1" parent="1">
          <mxGeometry width="50" height="50" relative="1" as="geometry">
            <mxPoint x="398" y="534" as="sourcePoint" />
            <mxPoint x="418" y="514" as="targetPoint" />
          </mxGeometry>
        </mxCell>
        <mxCell id="iRAKUGh4yZ9PAMQyv2t5-189" value="7" style="text;html=1;align=center;verticalAlign=middle;resizable=0;points=[];autosize=1;strokeColor=none;fillColor=none;" vertex="1" parent="1">
          <mxGeometry x="406" y="514" width="30" height="30" as="geometry" />
        </mxCell>
        <mxCell id="iRAKUGh4yZ9PAMQyv2t5-190" value="" style="endArrow=none;html=1;rounded=0;" edge="1" parent="1">
          <mxGeometry width="50" height="50" relative="1" as="geometry">
            <mxPoint x="543" y="534" as="sourcePoint" />
            <mxPoint x="563" y="514" as="targetPoint" />
          </mxGeometry>
        </mxCell>
        <mxCell id="iRAKUGh4yZ9PAMQyv2t5-191" value="7" style="text;html=1;align=center;verticalAlign=middle;resizable=0;points=[];autosize=1;strokeColor=none;fillColor=none;" vertex="1" parent="1">
          <mxGeometry x="551" y="514" width="30" height="30" as="geometry" />
        </mxCell>
        <mxCell id="iRAKUGh4yZ9PAMQyv2t5-192" value="XOR" style="rounded=0;whiteSpace=wrap;html=1;" vertex="1" parent="1">
          <mxGeometry x="408" y="167" width="50" height="30" as="geometry" />
        </mxCell>
        <mxCell id="iRAKUGh4yZ9PAMQyv2t5-193" value="" style="endArrow=classic;html=1;rounded=0;exitX=0.5;exitY=0;exitDx=0;exitDy=0;entryX=0.5;entryY=1;entryDx=0;entryDy=0;" edge="1" parent="1" source="iRAKUGh4yZ9PAMQyv2t5-192" target="iRAKUGh4yZ9PAMQyv2t5-128">
          <mxGeometry width="50" height="50" relative="1" as="geometry">
            <mxPoint x="410" y="340" as="sourcePoint" />
            <mxPoint x="460" y="290" as="targetPoint" />
            <Array as="points">
              <mxPoint x="490" y="167" />
            </Array>
          </mxGeometry>
        </mxCell>
        <mxCell id="iRAKUGh4yZ9PAMQyv2t5-194" value="" style="endArrow=classic;html=1;rounded=0;" edge="1" parent="1">
          <mxGeometry width="50" height="50" relative="1" as="geometry">
            <mxPoint x="390" y="70" as="sourcePoint" />
            <mxPoint x="408" y="180" as="targetPoint" />
            <Array as="points">
              <mxPoint x="390" y="180" />
            </Array>
          </mxGeometry>
        </mxCell>
        <mxCell id="iRAKUGh4yZ9PAMQyv2t5-195" value="" style="endArrow=classic;html=1;rounded=0;entryX=0;entryY=0.75;entryDx=0;entryDy=0;" edge="1" parent="1" target="iRAKUGh4yZ9PAMQyv2t5-192">
          <mxGeometry width="50" height="50" relative="1" as="geometry">
            <mxPoint x="370" y="70" as="sourcePoint" />
            <mxPoint x="460" y="290" as="targetPoint" />
            <Array as="points">
              <mxPoint x="370" y="190" />
            </Array>
          </mxGeometry>
        </mxCell>
        <mxCell id="iRAKUGh4yZ9PAMQyv2t5-196" value="" style="endArrow=classic;html=1;rounded=0;exitX=0.25;exitY=1;exitDx=0;exitDy=0;" edge="1" parent="1" source="iRAKUGh4yZ9PAMQyv2t5-192">
          <mxGeometry width="50" height="50" relative="1" as="geometry">
            <mxPoint x="410" y="340" as="sourcePoint" />
            <mxPoint x="490" y="260" as="targetPoint" />
            <Array as="points">
              <mxPoint x="420" y="270" />
              <mxPoint x="490" y="270" />
            </Array>
          </mxGeometry>
        </mxCell>
        <mxCell id="iRAKUGh4yZ9PAMQyv2t5-197" value="NOR" style="rounded=0;whiteSpace=wrap;html=1;" vertex="1" parent="1">
          <mxGeometry x="400" y="390" width="70" height="40" as="geometry" />
        </mxCell>
        <mxCell id="iRAKUGh4yZ9PAMQyv2t5-199" value="" style="endArrow=classic;html=1;rounded=0;exitX=1;exitY=0.5;exitDx=0;exitDy=0;entryX=0.602;entryY=0.978;entryDx=0;entryDy=0;entryPerimeter=0;" edge="1" parent="1" source="iRAKUGh4yZ9PAMQyv2t5-197" target="iRAKUGh4yZ9PAMQyv2t5-130">
          <mxGeometry width="50" height="50" relative="1" as="geometry">
            <mxPoint x="470" y="430" as="sourcePoint" />
            <mxPoint x="520" y="380" as="targetPoint" />
            <Array as="points">
              <mxPoint x="496" y="410" />
            </Array>
          </mxGeometry>
        </mxCell>
        <mxCell id="iRAKUGh4yZ9PAMQyv2t5-200" value="" style="endArrow=classic;html=1;rounded=0;entryX=0;entryY=0.25;entryDx=0;entryDy=0;" edge="1" parent="1" target="iRAKUGh4yZ9PAMQyv2t5-197">
          <mxGeometry width="50" height="50" relative="1" as="geometry">
            <mxPoint x="390" y="180" as="sourcePoint" />
            <mxPoint x="440" y="130" as="targetPoint" />
            <Array as="points">
              <mxPoint x="390" y="400" />
            </Array>
          </mxGeometry>
        </mxCell>
        <mxCell id="iRAKUGh4yZ9PAMQyv2t5-201" value="" style="endArrow=classic;html=1;rounded=0;entryX=0;entryY=0.5;entryDx=0;entryDy=0;" edge="1" parent="1" target="iRAKUGh4yZ9PAMQyv2t5-197">
          <mxGeometry width="50" height="50" relative="1" as="geometry">
            <mxPoint x="370" y="190" as="sourcePoint" />
            <mxPoint x="420" y="140" as="targetPoint" />
            <Array as="points">
              <mxPoint x="370" y="410" />
            </Array>
          </mxGeometry>
        </mxCell>
      </root>
    </mxGraphModel>
  </diagram>
</mxfile>
